<svg width="64" height="64" viewBox="0 0 64 64" fill="none" xmlns="http://www.w3.org/2000/svg">
  <ellipse cx="32" cy="57" rx="12" ry="4" fill="#091012" fill-opacity="0.28"/>
  <path d="M18 21L28 17H36L46 21L43 46L38 53H26L21 46L18 21Z" fill="#E8E1D2"/>
  <path d="M22 25L32 22L42 25L39 49L35 54H29L25 49L22 25Z" fill="#F6F0E2"/>
  <path d="M26 31L20 42L25 46L29 34L26 31Z" fill="#D58B4E"/>
  <path d="M38 31L44 40L39 45L35 34L38 31Z" fill="#D58B4E"/>
  <path d="M25 52H29V60H25V52Z" fill="#243137"/>
  <path d="M36 51H40V61H36V51Z" fill="#243137"/>
  <path d="M23 59H30V61H23V59Z" fill="#0A1113"/>
  <path d="M36 60H43V62H36V60Z" fill="#0A1113"/>
  <path d="M24 16C24 11.5817 27.5817 8 32 8C36.4183 8 40 11.5817 40 16V22H24V16Z" fill="#E8BC96"/>
  <path d="M20 15C20 11.6863 22.6863 9 26 9C27.644 9 29.1329 9.66109 30.2164 10.7307C30.7718 8.53386 32.7614 7 35.1094 7C37.7602 7 39.9586 8.95572 40.3371 11.5019C40.8411 11.1801 41.4399 11 42.0801 11C43.9153 11 45.5 12.4847 45.5 14.3199C45.5 14.8912 45.3466 15.4271 45.0784 15.8897C46.8507 16.3748 48.1538 17.9965 48.1538 19.9231C48.1538 22.2334 46.2803 24.1069 43.97 24.1069H21.8C19.7013 24.1069 18 22.4056 18 20.3069C18 18.4498 19.3433 16.9079 21.1126 16.6003C20.3997 16.1735 20 15.7213 20 15Z" fill="#F4F1EA"/>
  <path d="M23 21H41V24H23V21Z" fill="#E4DED2"/>
  <path d="M27 16H30V18H27V16Z" fill="#2C3337"/>
  <path d="M34 16H37V18H34V16Z" fill="#2C3337"/>
  <path d="M29 20H35V21H29V20Z" fill="#A66B4C"/>
</svg>
